# xmcd
#
# Track frame offsets: 
#        150
#        28539
#        49805
#        70956
#        92401
#        101026
#        116425
#        127944
#        149518
#        177740
#        208333
#        224027
#        242109
#        256221
#        271494
#        285934
#        297047
#        311026
#
# Disc length: 4286 seconds
#
# Revision: 1
# Processed by: cddbd v1.5.2PL0 Copyright (c) Steve Scherf et al.
# Submitted via: ExactAudioCopy v1.0b3
#
DISCID=1d10bc12
DTITLE=Gordon Haskell - The Right Time. A Collection
DYEAR=2002
DGENRE=Blues
TTITLE0=All My Life
TTITLE1=The Right Time
TTITLE2=Hambledon Hill
TTITLE3=Things We Said Today
TTITLE4=I Keep on Putting In
TTITLE5=Breathing In
TTITLE6=Today Is All We Got
TTITLE7=Lost Soul
TTITLE8=Go Tell Sarah
TTITLE9=I Don't Remember It
TTITLE10=America
TTITLE11=Walkin' In Wilderness
TTITLE12=Almost Certainly
TTITLE13=You're What I Need
TTITLE14=Only You
TTITLE15=One Love Will Do
TTITLE16=Nothing In This World
TTITLE17=A Little Help From You
EXTD=
EXTT0=
EXTT1=
EXTT2=
EXTT3=
EXTT4=
EXTT5=
EXTT6=
EXTT7=
EXTT8=
EXTT9=
EXTT10=
EXTT11=
EXTT12=
EXTT13=
EXTT14=
EXTT15=
EXTT16=
EXTT17=
PLAYORDER=
